<?xml version="1.0" encoding="UTF-8" standalone="no"?> <!-- Created with Vectornator for iOS (http://vectornator.io/) --><!DOCTYPE svg PUBLIC
        "-//W3C//DTD SVG 1.1//EN" "http://www.w3.org/Graphics/SVG/1.1/DTD/svg11.dtd">
<svg xmlns:vectornator="http://vectornator.io"
     style="fill-rule:nonzero;clip-rule:evenodd;stroke-linecap:round;stroke-linejoin:round;"
     xmlns="http://www.w3.org/2000/svg" xml:space="preserve" version="1.1" viewBox="0 0 185 25">
<metadata>
<vectornator:setting key="SnapToPoints" value="1"/>
    <vectornator:setting key="RulersVisible" value="1"/>
    <vectornator:setting key="SnapToGrid" value="1"/>
    <vectornator:setting key="SnapToEdges" value="1"/>
    <vectornator:setting key="DisplayWhiteBackground" value="0"/>
    <vectornator:setting key="TimeLapseWatermarkDisabled" value="0"/>
    <vectornator:setting key="DynamicGuides" value="0"/>
    <vectornator:setting key="OutlineMode" value="0"/>
    <vectornator:setting key="DimensionsVisible" value="1"/>
    <vectornator:setting key="PencilOnly" value="0"/>
    <vectornator:setting key="Units" value="Pixels"/>
    <vectornator:setting key="GuidesVisible" value="1"/>
    <vectornator:setting key="SnapToGuides" value="1"/>
    <vectornator:setting key="CMYKEnabledKey" value="0"/>
    <vectornator:setting key="doHistoryDisabled" value="0"/>
    <vectornator:setting key="IsolateActiveLayer" value="0"/>
</metadata>
    <defs>
<linearGradient y1="234.349" id="LinearGradient" x1="420.251" y2="233.99" x2="609.915" gradientUnits="userSpaceOnUse"
                gradientTransform="matrix(1 0 0 1 47.2436 16.7081)">
<stop stop-color="#f5ce2a" offset="0"/>
    <stop stop-color="#fa6e25" offset="0.485294"/>
    <stop stop-color="#003399" offset="1"/>
</linearGradient>
        <linearGradient y1="234.349" id="LinearGradient_2" x1="420.251" y2="233.99" x2="609.915"
                        gradientUnits="userSpaceOnUse" gradientTransform="matrix(1 0 0 1 47.2436 16.7081)">
<stop stop-color="#f5ce2a" offset="0"/>
            <stop stop-color="#fa6e25" offset="0.485294"/>
            <stop stop-color="#003399" offset="1"/>
</linearGradient>
        <linearGradient y1="234.349" id="LinearGradient_3" x1="420.251" y2="233.99" x2="609.915"
                        gradientUnits="userSpaceOnUse" gradientTransform="matrix(1 0 0 1 47.2436 16.7081)">
<stop stop-color="#f5ce2a" offset="0"/>
            <stop stop-color="#fa6e25" offset="0.485294"/>
            <stop stop-color="#003399" offset="1"/>
</linearGradient>
        <linearGradient y1="234.349" id="LinearGradient_4" x1="420.251" y2="233.99" x2="609.915"
                        gradientUnits="userSpaceOnUse" gradientTransform="matrix(1 0 0 1 47.2436 16.7081)">
<stop stop-color="#f5ce2a" offset="0"/>
            <stop stop-color="#fa6e25" offset="0.485294"/>
            <stop stop-color="#003399" offset="1"/>
</linearGradient>
        <linearGradient y1="234.349" id="LinearGradient_5" x1="420.251" y2="233.99" x2="609.915"
                        gradientUnits="userSpaceOnUse" gradientTransform="matrix(1 0 0 1 47.2436 16.7081)">
<stop stop-color="#f5ce2a" offset="0"/>
            <stop stop-color="#fa6e25" offset="0.485294"/>
            <stop stop-color="#003399" offset="1"/>
</linearGradient>
        <linearGradient y1="234.349" id="LinearGradient_6" x1="420.251" y2="233.99" x2="609.915"
                        gradientUnits="userSpaceOnUse" gradientTransform="matrix(1 0 0 1 47.2436 16.7081)">
<stop stop-color="#f5ce2a" offset="0"/>
            <stop stop-color="#fa6e25" offset="0.485294"/>
            <stop stop-color="#003399" offset="1"/>
</linearGradient>
        <linearGradient y1="234.349" id="LinearGradient_7" x1="420.251" y2="233.99" x2="609.915"
                        gradientUnits="userSpaceOnUse" gradientTransform="matrix(1 0 0 1 47.2436 16.7081)">
<stop stop-color="#f5ce2a" offset="0"/>
            <stop stop-color="#fa6e25" offset="0.485294"/>
            <stop stop-color="#003399" offset="1"/>
</linearGradient>
        <linearGradient y1="234.349" id="LinearGradient_8" x1="420.251" y2="233.99" x2="609.915"
                        gradientUnits="userSpaceOnUse" gradientTransform="matrix(1 0 0 1 47.2436 16.7081)">
<stop stop-color="#f5ce2a" offset="0"/>
            <stop stop-color="#fa6e25" offset="0.485294"/>
            <stop stop-color="#003399" offset="1"/>
</linearGradient>
        <linearGradient y1="234.349" id="LinearGradient_9" x1="420.251" y2="233.99" x2="609.915"
                        gradientUnits="userSpaceOnUse" gradientTransform="matrix(1 0 0 1 47.2436 16.7081)">
<stop stop-color="#f5ce2a" offset="0"/>
            <stop stop-color="#fa6e25" offset="0.485294"/>
            <stop stop-color="#003399" offset="1"/>
</linearGradient>
        <linearGradient y1="234.349" id="LinearGradient_10" x1="420.251" y2="233.99" x2="609.915"
                        gradientUnits="userSpaceOnUse" gradientTransform="matrix(1 0 0 1 47.2436 16.7081)">
<stop stop-color="#f5ce2a" offset="0"/>
            <stop stop-color="#fa6e25" offset="0.485294"/>
            <stop stop-color="#003399" offset="1"/>
</linearGradient>
        <linearGradient y1="234.349" id="LinearGradient_11" x1="420.251" y2="233.99" x2="609.915"
                        gradientUnits="userSpaceOnUse" gradientTransform="matrix(1 0 0 1 47.2436 16.7081)">
<stop stop-color="#f5ce2a" offset="0"/>
            <stop stop-color="#fa6e25" offset="0.485294"/>
            <stop stop-color="#003399" offset="1"/>
</linearGradient>
        <linearGradient y1="234.349" id="LinearGradient_12" x1="420.251" y2="233.99" x2="609.915"
                        gradientUnits="userSpaceOnUse" gradientTransform="matrix(1 0 0 1 -420.251 -195.773)">
<stop stop-color="#f5ce2a" offset="0"/>
            <stop stop-color="#fa6e25" offset="0.485294"/>
            <stop stop-color="#003399" offset="1"/>
</linearGradient>
        <linearGradient y1="234.349" id="LinearGradient_13" x1="420.251" y2="233.99" x2="609.915"
                        gradientUnits="userSpaceOnUse" gradientTransform="matrix(1 0 0 1 -420.251 -195.773)">
<stop stop-color="#f5ce2a" offset="0"/>
            <stop stop-color="#fa6e25" offset="0.485294"/>
            <stop stop-color="#003399" offset="1"/>
</linearGradient>
        <linearGradient y1="234.349" id="LinearGradient_14" x1="420.251" y2="233.99" x2="609.915"
                        gradientUnits="userSpaceOnUse" gradientTransform="matrix(1 0 0 1 -420.251 -195.773)">
<stop stop-color="#f5ce2a" offset="0"/>
            <stop stop-color="#fa6e25" offset="0.485294"/>
            <stop stop-color="#003399" offset="1"/>
</linearGradient>
        <linearGradient y1="234.349" id="LinearGradient_15" x1="420.251" y2="233.99" x2="609.915"
                        gradientUnits="userSpaceOnUse" gradientTransform="matrix(1 0 0 1 -420.251 -195.773)">
<stop stop-color="#f5ce2a" offset="0"/>
            <stop stop-color="#fa6e25" offset="0.485294"/>
            <stop stop-color="#003399" offset="1"/>
</linearGradient>
        <linearGradient y1="234.349" id="LinearGradient_16" x1="420.251" y2="233.99" x2="609.915"
                        gradientUnits="userSpaceOnUse" gradientTransform="matrix(1 0 0 1 -420.251 -195.773)">
<stop stop-color="#f5ce2a" offset="0"/>
            <stop stop-color="#fa6e25" offset="0.485294"/>
            <stop stop-color="#003399" offset="1"/>
</linearGradient>
        <linearGradient y1="234.349" id="LinearGradient_17" x1="420.251" y2="233.99" x2="609.915"
                        gradientUnits="userSpaceOnUse" gradientTransform="matrix(1 0 0 1 -420.251 -195.773)">
<stop stop-color="#f5ce2a" offset="0"/>
            <stop stop-color="#fa6e25" offset="0.485294"/>
            <stop stop-color="#003399" offset="1"/>
</linearGradient>
        <linearGradient y1="234.349" id="LinearGradient_18" x1="420.251" y2="233.99" x2="609.915"
                        gradientUnits="userSpaceOnUse" gradientTransform="matrix(1 0 0 1 -420.251 -195.773)">
<stop stop-color="#f5ce2a" offset="0"/>
            <stop stop-color="#fa6e25" offset="0.485294"/>
            <stop stop-color="#003399" offset="1"/>
</linearGradient>
        <linearGradient y1="234.349" id="LinearGradient_19" x1="420.251" y2="233.99" x2="609.915"
                        gradientUnits="userSpaceOnUse" gradientTransform="matrix(1 0 0 1 -420.251 -195.773)">
<stop stop-color="#f5ce2a" offset="0"/>
            <stop stop-color="#fa6e25" offset="0.485294"/>
            <stop stop-color="#003399" offset="1"/>
</linearGradient>
        <linearGradient y1="234.349" id="LinearGradient_20" x1="420.251" y2="233.99" x2="609.915"
                        gradientUnits="userSpaceOnUse" gradientTransform="matrix(1 0 0 1 -420.251 -195.773)">
<stop stop-color="#f5ce2a" offset="0"/>
            <stop stop-color="#fa6e25" offset="0.485294"/>
            <stop stop-color="#003399" offset="1"/>
</linearGradient>
        <linearGradient y1="234.349" id="LinearGradient_21" x1="420.251" y2="233.99" x2="609.915"
                        gradientUnits="userSpaceOnUse" gradientTransform="matrix(1 0 0 1 -420.251 -195.773)">
<stop stop-color="#f5ce2a" offset="0"/>
            <stop stop-color="#fa6e25" offset="0.485294"/>
            <stop stop-color="#003399" offset="1"/>
</linearGradient>
        <linearGradient y1="234.349" id="LinearGradient_22" x1="420.251" y2="233.99" x2="609.915"
                        gradientUnits="userSpaceOnUse" gradientTransform="matrix(1 0 0 1 -420.251 -195.773)">
<stop stop-color="#f5ce2a" offset="0"/>
            <stop stop-color="#fa6e25" offset="0.485294"/>
            <stop stop-color="#003399" offset="1"/>
</linearGradient>
</defs>
    <g id="Слой 1" vectornator:layerName="Слой 1">
<g opacity="1">
<path d="M378.947+243.224L381.678+243.224L382.779+239.193L380.061+239.193L380.424+237.833L383.143+237.833L384.537+232.583L386.283+232.583L384.865+237.833L387.455+237.833L388.897+232.583L390.619+232.583L389.201+237.833L391.92+237.833L391.557+239.193L388.838+239.193L387.725+243.224L390.455+243.224L390.092+244.583L387.397+244.583L385.955+249.798L384.233+249.798L385.65+244.583L383.037+244.583L381.643+249.798L379.897+249.798L381.315+244.583L378.596+244.583L378.947+243.224ZM385.979+243.224L387.092+239.193L384.502+239.193L383.424+243.224L385.979+243.224Z"
      opacity="1" fill="#000000"/>
    <path d="M392.951+260.183L392.951+262.234L387.15+262.234L387.15+277.398L384.783+277.398L384.783+262.234L378.983+262.234L378.983+260.183L392.951+260.183Z"
          opacity="1" fill="#000000"/>
    <path d="M380.647+287.783L393.197+287.783L393.197+289.893L382.92+289.893L382.92+295.119L392.424+295.119L392.424+297.112L382.92+297.112L382.92+302.947L393.373+302.947L393.373+304.998L380.647+304.998L380.647+287.783Z"
          opacity="1" fill="#000000"/>
</g>
        <g opacity="1"/>
        <g opacity="1">
<path d="M470.799+229.93L469.205+229.93L469.205+227.352L471.315+227.352L472.018+223.895L469.205+223.895L469.205+221.305L472.545+221.305L473.471+216.735L476.096+216.735L475.17+221.305L477.76+221.305L478.662+216.735L481.381+216.735L480.444+221.305L482.061+221.305L482.061+223.895L479.916+223.895L479.213+227.352L482.061+227.352L482.061+229.93L478.686+229.93L477.76+234.501L475.147+234.501L476.049+229.93L473.447+229.93L472.522+234.501L469.873+234.501L470.799+229.93ZM474.654+223.895L473.963+227.352L476.565+227.352L477.244+223.895L474.654+223.895Z"
      opacity="1" fill="url(#LinearGradient)"/>
            <path d="M487.955+234.208L487.955+219.934L482.858+219.934L482.858+217.028L496.51+217.028L496.51+219.934L491.424+219.934L491.424+234.208L487.955+234.208Z"
                  opacity="1" fill="url(#LinearGradient_2)"/>
            <path d="M498.748+234.208L498.748+217.028L511.487+217.028L511.487+219.934L502.217+219.934L502.217+223.743L510.842+223.743L510.842+226.637L502.217+226.637L502.217+231.313L511.815+231.313L511.815+234.208L498.748+234.208Z"
                  opacity="1" fill="url(#LinearGradient_3)"/>
            <path d="M530.248+234.208L526.475+234.208L524.975+230.305L518.108+230.305L516.69+234.208L513.01+234.208L519.701+217.028L523.369+217.028L530.248+234.208ZM523.862+227.411L521.494+221.036L519.174+227.411L523.862+227.411Z"
                  opacity="1" fill="url(#LinearGradient_4)"/>
            <path d="M532.041+234.208L532.041+217.028L537.233+217.028L540.35+228.747L543.432+217.028L548.635+217.028L548.635+234.208L545.412+234.208L545.412+220.684L542.002+234.208L538.662+234.208L535.264+220.684L535.264+234.208L532.041+234.208Z"
                  opacity="1" fill="url(#LinearGradient_5)"/>
            <path d="M552.08+234.208L552.08+217.028L564.819+217.028L564.819+219.934L555.549+219.934L555.549+223.743L564.174+223.743L564.174+226.637L555.549+226.637L555.549+231.313L565.147+231.313L565.147+234.208L552.08+234.208Z"
                  opacity="1" fill="url(#LinearGradient_6)"/>
            <path d="M568.065+217.028L571.533+217.028L571.533+226.333C571.533+227.809+571.576+228.766+571.662+229.204C571.811+229.907+572.164+230.471+572.723+230.897C573.281+231.323+574.045+231.536+575.014+231.536C575.998+231.536+576.74+231.335+577.24+230.932C577.74+230.53+578.041+230.036+578.143+229.45C578.244+228.864+578.295+227.891+578.295+226.532L578.295+217.028L581.764+217.028L581.764+226.051C581.764+228.114+581.67+229.571+581.483+230.423C581.295+231.274+580.949+231.993+580.446+232.579C579.942+233.165+579.268+233.632+578.424+233.979C577.58+234.327+576.479+234.501+575.119+234.501C573.479+234.501+572.235+234.311+571.387+233.932C570.539+233.553+569.869+233.061+569.377+232.456C568.885+231.85+568.561+231.216+568.404+230.551C568.178+229.567+568.065+228.114+568.065+226.192L568.065+217.028Z"
                  opacity="1" fill="url(#LinearGradient_7)"/>
            <path d="M585.432+234.208L585.432+217.028L592.733+217.028C594.569+217.028+595.903+217.182+596.735+217.491C597.567+217.8+598.233+218.348+598.733+219.137C599.233+219.926+599.483+220.829+599.483+221.844C599.483+223.134+599.104+224.198+598.346+225.038C597.588+225.878+596.455+226.407+594.947+226.626C595.697+227.063+596.317+227.544+596.805+228.067C597.293+228.591+597.951+229.52+598.779+230.856L600.877+234.208L596.729+234.208L594.221+230.469C593.33+229.134+592.721+228.292+592.393+227.944C592.065+227.596+591.717+227.358+591.35+227.229C590.983+227.1+590.401+227.036+589.604+227.036L588.901+227.036L588.901+234.208L585.432+234.208ZM588.901+224.294L591.467+224.294C593.131+224.294+594.17+224.223+594.584+224.083C594.998+223.942+595.322+223.7+595.557+223.356C595.791+223.012+595.908+222.583+595.908+222.067C595.908+221.489+595.754+221.022+595.446+220.667C595.137+220.311+594.701+220.087+594.139+219.993C593.858+219.954+593.014+219.934+591.608+219.934L588.901+219.934L588.901+224.294Z"
                  opacity="1" fill="url(#LinearGradient_8)"/>
            <path d="M602.049+225.723C602.049+223.973+602.311+222.505+602.834+221.317C603.225+220.442+603.758+219.657+604.434+218.962C605.11+218.266+605.85+217.751+606.654+217.415C607.725+216.962+608.959+216.735+610.358+216.735C612.889+216.735+614.914+217.52+616.434+219.091C617.953+220.661+618.713+222.844+618.713+225.641C618.713+228.415+617.959+230.585+616.451+232.151C614.944+233.717+612.928+234.501+610.404+234.501C607.85+234.501+605.819+233.721+604.311+232.163C602.803+230.604+602.049+228.458+602.049+225.723ZM605.623+225.606C605.623+227.551+606.072+229.026+606.971+230.03C607.869+231.034+609.01+231.536+610.393+231.536C611.776+231.536+612.91+231.038+613.797+230.042C614.684+229.046+615.127+227.551+615.127+225.559C615.127+223.591+614.696+222.122+613.832+221.153C612.969+220.184+611.822+219.7+610.393+219.7C608.963+219.7+607.811+220.19+606.936+221.171C606.061+222.151+605.623+223.63+605.623+225.606Z"
                  opacity="1" fill="url(#LinearGradient_9)"/>
            <path d="M621.42+234.208L621.42+217.028L626.987+217.028C629.096+217.028+630.471+217.114+631.112+217.286C632.096+217.544+632.92+218.104+633.584+218.967C634.248+219.831+634.58+220.946+634.58+222.313C634.58+223.368+634.389+224.255+634.006+224.973C633.623+225.692+633.137+226.257+632.547+226.667C631.957+227.077+631.358+227.348+630.748+227.481C629.92+227.645+628.721+227.727+627.151+227.727L624.889+227.727L624.889+234.208L621.42+234.208ZM624.889+219.934L624.889+224.809L626.787+224.809C628.154+224.809+629.069+224.719+629.529+224.54C629.99+224.36+630.352+224.079+630.613+223.696C630.875+223.313+631.006+222.868+631.006+222.36C631.006+221.735+630.822+221.219+630.455+220.813C630.088+220.407+629.623+220.153+629.061+220.051C628.647+219.973+627.815+219.934+626.565+219.934L624.889+219.934Z"
                  opacity="1" fill="url(#LinearGradient_10)"/>
            <path d="M637.428+234.208L637.428+217.028L650.166+217.028L650.166+219.934L640.897+219.934L640.897+223.743L649.522+223.743L649.522+226.637L640.897+226.637L640.897+231.313L650.494+231.313L650.494+234.208L637.428+234.208Z"
                  opacity="1" fill="url(#LinearGradient_11)"/>
</g>
        <g opacity="1">
<path d="M3.30469+17.4492L1.71094+17.4492L1.71094+14.8711L3.82031+14.8711L4.52344+11.4141L1.71094+11.4141L1.71094+8.82422L5.05078+8.82422L5.97656+4.25391L8.60156+4.25391L7.67578+8.82422L10.2656+8.82422L11.168+4.25391L13.8867+4.25391L12.9492+8.82422L14.5664+8.82422L14.5664+11.4141L12.4219+11.4141L11.7188+14.8711L14.5664+14.8711L14.5664+17.4492L11.1914+17.4492L10.2656+22.0195L7.65234+22.0195L8.55469+17.4492L5.95312+17.4492L5.02734+22.0195L2.37891+22.0195L3.30469+17.4492ZM7.16016+11.4141L6.46875+14.8711L9.07031+14.8711L9.75+11.4141L7.16016+11.4141Z"
      opacity="1" fill="url(#LinearGradient_12)"/>
            <path d="M20.4609+21.7266L20.4609+7.45312L15.3633+7.45312L15.3633+4.54688L29.0156+4.54688L29.0156+7.45312L23.9297+7.45312L23.9297+21.7266L20.4609+21.7266Z"
                  opacity="1" fill="url(#LinearGradient_13)"/>
            <path d="M31.2539+21.7266L31.2539+4.54688L43.9922+4.54688L43.9922+7.45312L34.7227+7.45312L34.7227+11.2617L43.3477+11.2617L43.3477+14.1562L34.7227+14.1562L34.7227+18.832L44.3203+18.832L44.3203+21.7266L31.2539+21.7266Z"
                  opacity="1" fill="url(#LinearGradient_14)"/>
            <path d="M62.7539+21.7266L58.9805+21.7266L57.4805+17.8242L50.6133+17.8242L49.1953+21.7266L45.5156+21.7266L52.207+4.54688L55.875+4.54688L62.7539+21.7266ZM56.3672+14.9297L54+8.55469L51.6797+14.9297L56.3672+14.9297Z"
                  opacity="1" fill="url(#LinearGradient_15)"/>
            <path d="M64.5469+21.7266L64.5469+4.54688L69.7383+4.54688L72.8555+16.2656L75.9375+4.54688L81.1406+4.54688L81.1406+21.7266L77.918+21.7266L77.918+8.20312L74.5078+21.7266L71.168+21.7266L67.7695+8.20312L67.7695+21.7266L64.5469+21.7266Z"
                  opacity="1" fill="url(#LinearGradient_16)"/>
            <path d="M84.5859+21.7266L84.5859+4.54688L97.3242+4.54688L97.3242+7.45312L88.0547+7.45312L88.0547+11.2617L96.6797+11.2617L96.6797+14.1562L88.0547+14.1562L88.0547+18.832L97.6523+18.832L97.6523+21.7266L84.5859+21.7266Z"
                  opacity="1" fill="url(#LinearGradient_17)"/>
            <path d="M100.57+4.54688L104.039+4.54688L104.039+13.8516C104.039+15.3281+104.082+16.2852+104.168+16.7227C104.316+17.4258+104.67+17.9902+105.229+18.416C105.787+18.8418+106.551+19.0547+107.52+19.0547C108.504+19.0547+109.246+18.8535+109.746+18.4512C110.246+18.0488+110.547+17.5547+110.648+16.9688C110.75+16.3828+110.801+15.4102+110.801+14.0508L110.801+4.54688L114.27+4.54688L114.27+13.5703C114.27+15.6328+114.176+17.0898+113.988+17.9414C113.801+18.793+113.455+19.5117+112.951+20.0977C112.447+20.6836+111.773+21.1504+110.93+21.498C110.086+21.8457+108.984+22.0195+107.625+22.0195C105.984+22.0195+104.74+21.8301+103.893+21.4512C103.045+21.0723+102.375+20.5801+101.883+19.9746C101.391+19.3691+101.066+18.7344+100.91+18.0703C100.684+17.0859+100.57+15.6328+100.57+13.7109L100.57+4.54688Z"
                  opacity="1" fill="url(#LinearGradient_18)"/>
            <path d="M117.938+21.7266L117.938+4.54688L125.238+4.54688C127.074+4.54688+128.408+4.70117+129.24+5.00977C130.072+5.31836+130.738+5.86719+131.238+6.65625C131.738+7.44531+131.988+8.34766+131.988+9.36328C131.988+10.6523+131.609+11.7168+130.852+12.5566C130.094+13.3965+128.961+13.9258+127.453+14.1445C128.203+14.582+128.822+15.0625+129.311+15.5859C129.799+16.1094+130.457+17.0391+131.285+18.375L133.383+21.7266L129.234+21.7266L126.727+17.9883C125.836+16.6523+125.227+15.8105+124.898+15.4629C124.57+15.1152+124.223+14.877+123.855+14.748C123.488+14.6191+122.906+14.5547+122.109+14.5547L121.406+14.5547L121.406+21.7266L117.938+21.7266ZM121.406+11.8125L123.973+11.8125C125.637+11.8125+126.676+11.7422+127.09+11.6016C127.504+11.4609+127.828+11.2188+128.062+10.875C128.297+10.5312+128.414+10.1016+128.414+9.58594C128.414+9.00781+128.26+8.54102+127.951+8.18555C127.643+7.83008+127.207+7.60547+126.645+7.51172C126.363+7.47266+125.52+7.45312+124.113+7.45312L121.406+7.45312L121.406+11.8125Z"
                  opacity="1" fill="url(#LinearGradient_19)"/>
            <path d="M134.555+13.2422C134.555+11.4922+134.816+10.0234+135.34+8.83594C135.73+7.96094+136.264+7.17578+136.939+6.48047C137.615+5.78516+138.355+5.26953+139.16+4.93359C140.23+4.48047+141.465+4.25391+142.863+4.25391C145.395+4.25391+147.42+5.03906+148.939+6.60938C150.459+8.17969+151.219+10.3633+151.219+13.1602C151.219+15.9336+150.465+18.1035+148.957+19.6699C147.449+21.2363+145.434+22.0195+142.91+22.0195C140.355+22.0195+138.324+21.2402+136.816+19.6816C135.309+18.123+134.555+15.9766+134.555+13.2422ZM138.129+13.125C138.129+15.0703+138.578+16.5449+139.477+17.5488C140.375+18.5527+141.516+19.0547+142.898+19.0547C144.281+19.0547+145.416+18.5566+146.303+17.5605C147.189+16.5645+147.633+15.0703+147.633+13.0781C147.633+11.1094+147.201+9.64063+146.338+8.67188C145.475+7.70312+144.328+7.21875+142.898+7.21875C141.469+7.21875+140.316+7.70898+139.441+8.68945C138.566+9.66992+138.129+11.1484+138.129+13.125Z"
                  opacity="1" fill="url(#LinearGradient_20)"/>
            <path d="M153.926+21.7266L153.926+4.54688L159.492+4.54688C161.602+4.54688+162.977+4.63281+163.617+4.80469C164.602+5.0625+165.426+5.62305+166.09+6.48633C166.754+7.34961+167.086+8.46484+167.086+9.83203C167.086+10.8867+166.895+11.7734+166.512+12.4922C166.129+13.2109+165.643+13.7754+165.053+14.1855C164.463+14.5957+163.863+14.8672+163.254+15C162.426+15.1641+161.227+15.2461+159.656+15.2461L157.395+15.2461L157.395+21.7266L153.926+21.7266ZM157.395+7.45312L157.395+12.3281L159.293+12.3281C160.66+12.3281+161.574+12.2383+162.035+12.0586C162.496+11.8789+162.857+11.5977+163.119+11.2148C163.381+10.832+163.512+10.3867+163.512+9.87891C163.512+9.25391+163.328+8.73828+162.961+8.33203C162.594+7.92578+162.129+7.67188+161.566+7.57031C161.152+7.49219+160.32+7.45312+159.07+7.45312L157.395+7.45312Z"
                  opacity="1" fill="url(#LinearGradient_21)"/>
            <path d="M169.934+21.7266L169.934+4.54688L182.672+4.54688L182.672+7.45312L173.402+7.45312L173.402+11.2617L182.027+11.2617L182.027+14.1562L173.402+14.1562L173.402+18.832L183+18.832L183+21.7266L169.934+21.7266Z"
                  opacity="1" fill="url(#LinearGradient_22)"/>
</g>
        <g opacity="1"/>
        <g opacity="1"/>
</g>
</svg>
